<svg width="61" height="67" viewBox="0 0 61 67" fill="none" xmlns="http://www.w3.org/2000/svg">
<path d="M0.00620862 19.1462C-0.100458 13.0673 1.15022 7.04174 5.08356 3.45575C9.89022 -0.930099 17.9929 0.516266 22.8016 4.89545C27.6096 9.2813 29.8843 15.7268 31.7709 21.9523C32.5443 16.7399 33.3842 11.3609 36.1776 6.88844C38.9709 2.41594 44.2776 -0.923462 49.4176 0.229652C53.9776 1.24947 57.1909 5.44207 58.8443 9.81459C62.5576 19.6128 60.1976 30.924 54.8576 39.9403C48.6043 50.4883 37.6176 58.3195 28.6709 66.5193C18.6343 56.3619 6.93622 47.2489 2.38622 33.2502C1.15689 29.4709 0.0962087 24.2852 0.00620862 19.1462Z" fill="#3A4F4B"/>
</svg>
